<svg xmlns="http://www.w3.org/2000/svg" width="70" height="70" viewBox="0 0 70 70" fill="none">
  <g clip-path="url(#clip0_52_11)">
    <rect x="5" y="4" width="62" height="62" fill="#540000"/>
    <g style="mix-blend-mode:screen">
      <path d="M63.9415 0H6.0585C2.7265 0 0 2.7265 0 6.0585V63.938C0 67.27 2.7265 69.9965 6.0585 69.9965H63.938C67.27 69.9965 69.9965 67.27 69.9965 63.938V6.0585C69.9965 2.7265 67.27 0 63.938 0H63.9415ZM64.19 59.99C64.19 62.3 62.3 64.19 59.99 64.19H10.01C7.7 64.19 5.81 62.3 5.81 59.99V10.01C5.81 7.7 7.7 5.81 10.01 5.81H59.9865C62.2965 5.81 64.1865 7.7 64.1865 10.01V59.9865L64.19 59.99Z" fill="#FFD63B"/>
    </g>
    <path opacity="0.5" d="M64.0815 68.3865H7.5355C4.2805 68.3865 1.617 65.723 1.617 62.468V5.9185C1.6135 2.6635 4.2805 0 7.5355 0H6.062C2.7265 0 0 2.7265 0 6.0585V63.938C0 67.27 2.7265 69.9965 6.0585 69.9965H63.938C67.27 69.9965 69.9965 67.27 69.9965 63.938V62.4645C69.9965 65.7195 67.333 68.383 64.078 68.383L64.0815 68.3865Z" fill="black"/>
    <path opacity="0.5" d="M61.586 4.0915H10.136C7.75951 4.0915 5.81351 6.0375 5.81351 8.414V10.01C5.81351 7.7 7.70351 5.81 10.0135 5.81H59.99C62.3 5.81 64.19 7.7 64.19 10.01V59.9865C64.19 62.2965 62.3 64.1865 59.99 64.1865H61.586C63.9625 64.1865 65.9085 62.2405 65.9085 59.864V8.414C65.9085 6.0375 63.9625 4.0915 61.586 4.0915Z" fill="black"/>
  </g>
  <defs>
    <clipPath id="clip0_52_11">
      <rect width="70" height="70" fill="white"/>
    </clipPath>
  </defs>
</svg>