<svg width="70" height="70" viewBox="0 0 70 70" fill="none" xmlns="http://www.w3.org/2000/svg">
<g style="mix-blend-mode:screen">
<path d="M63.9415 0H6.0585C2.7265 0 0 2.7265 0 6.0585V63.938C0 67.27 2.7265 69.9965 6.0585 69.9965H63.938C67.27 69.9965 69.9965 67.27 69.9965 63.938V6.0585C69.9965 2.7265 67.27 0 63.938 0H63.9415ZM64.19 59.99C64.19 62.3 62.3 64.19 59.99 64.19H10.01C7.7 64.19 5.81 62.3 5.81 59.99V10.01C5.81 7.7 7.7 5.81 10.01 5.81H59.9865C62.2965 5.81 64.1865 7.7 64.1865 10.01V59.9865L64.19 59.99Z" fill="#FFD63B"/>
</g>
</svg>
