<svg width="215" height="215" viewBox="0 0 215 215" fill="none" xmlns="http://www.w3.org/2000/svg">
<g clip-path="url(#clip0_52_23)">
<path d="M208.93 0H6.06C2.71315 0 0 2.71315 0 6.06V208.94C0 212.287 2.71315 215 6.06 215H208.93C212.277 215 214.99 212.287 214.99 208.94V6.06C214.99 2.71315 212.277 0 208.93 0Z" fill="black"/>
<g style="mix-blend-mode:screen">
<path d="M208.93 0H6.06C2.73 0 0 2.73 0 6.06V208.94C0 212.27 2.73 215 6.06 215H208.93C212.26 215 214.99 212.27 214.99 208.94V6.06C214.99 2.73 212.26 0 208.93 0ZM209.18 204.99C209.18 207.3 207.29 209.19 204.98 209.19H10.01C7.7 209.19 5.81 207.3 5.81 204.99V10.01C5.81 7.7 7.7 5.81 10.01 5.81H204.98C207.29 5.81 209.18 7.7 209.18 10.01V204.99Z" fill="#FFD63B"/>
</g>
<path opacity="0.5" d="M209.07 213.39H7.53C4.27 213.39 1.61 210.73 1.61 207.47V5.92C1.61 2.66 4.28 0 7.53 0H6.05C2.73 0 0 2.73 0 6.06V208.94C0 212.27 2.73 215 6.06 215H208.93C212.26 215 214.99 212.27 214.99 208.94V207.46C214.99 210.72 212.33 213.38 209.07 213.38V213.39Z" fill="black"/>
<path opacity="0.5" d="M206.58 4.09H10.13C7.75 4.09 5.81 6.04 5.81 8.41V10.01C5.81 7.7 7.7 5.81 10.01 5.81H204.98C207.29 5.81 209.18 7.7 209.18 10.01V204.99C209.18 207.3 207.29 209.19 204.98 209.19H206.58C208.96 209.19 210.9 207.24 210.9 204.87V8.41C210.9 6.03 208.95 4.09 206.58 4.09Z" fill="black"/>
</g>
<defs>
<clipPath id="clip0_52_23">
<rect width="214.99" height="215" fill="white"/>
</clipPath>
</defs>
</svg>
